<svg width="3147" height="838" viewBox="0 0 3147 838" fill="none" xmlns="http://www.w3.org/2000/svg">
<path d="M1998.74 675.327C1994.76 673.536 1991.67 671.067 1989.41 667.899C1987.15 664.732 1986 661.074 1985.92 656.926H1996.52C1996.88 660.49 1998.37 663.506 2000.95 665.938C2003.53 668.37 2007.3 669.596 2012.24 669.596C2017.18 669.596 2020.71 668.408 2023.42 666.051C2026.16 663.695 2027.52 660.64 2027.52 656.945C2027.52 654.042 2026.72 651.666 2025.12 649.856C2023.52 648.046 2021.52 646.651 2019.11 645.708C2016.71 644.766 2013.47 643.747 2009.4 642.654C2004.38 641.353 2000.35 640.033 1997.33 638.732C1994.31 637.413 1991.73 635.358 1989.58 632.567C1987.43 629.777 1986.35 626.006 1986.35 621.274C1986.35 617.126 1987.41 613.45 1989.52 610.244C1991.63 607.039 1994.59 604.569 1998.42 602.816C2002.25 601.063 2006.62 600.195 2011.58 600.195C2018.71 600.195 2024.56 601.986 2029.1 605.55C2033.64 609.113 2036.21 613.845 2036.79 619.747H2025.88C2025.52 616.843 2023.99 614.279 2021.29 612.054C2018.6 609.83 2015.03 608.717 2010.58 608.717C2006.44 608.717 2003.06 609.792 2000.44 611.941C1997.82 614.091 1996.5 617.088 1996.5 620.953C1996.5 623.725 1997.27 625.968 1998.86 627.722C2000.42 629.475 2002.34 630.795 2004.64 631.7C2006.94 632.605 2010.17 633.642 2014.32 634.811C2019.33 636.187 2023.39 637.563 2026.44 638.902C2029.5 640.241 2032.12 642.315 2034.3 645.124C2036.49 647.914 2037.58 651.723 2037.58 656.53C2037.58 660.244 2036.6 663.732 2034.64 667.013C2032.68 670.294 2029.76 672.952 2025.91 674.988C2022.07 677.024 2017.5 678.042 2012.26 678.042C2007.02 678.042 2002.74 677.156 1998.78 675.365L1998.74 675.327Z" fill="#003F3C"/>
<path d="M2052.2 630.983C2054.67 626.364 2058.08 622.782 2062.4 620.236C2066.73 617.691 2071.54 616.409 2076.86 616.409C2082.18 616.409 2086.65 617.54 2090.51 619.803C2094.36 622.065 2097.24 624.893 2099.13 628.325V617.408H2109.18V677.25H2099.13V666.108C2097.17 669.596 2094.24 672.499 2090.34 674.78C2086.44 677.081 2081.91 678.212 2076.75 678.212C2071.58 678.212 2066.62 676.892 2062.34 674.271C2058.06 671.651 2054.67 667.974 2052.2 663.242C2049.71 658.51 2048.48 653.136 2048.48 647.084C2048.48 641.032 2049.73 635.602 2052.2 630.983ZM2096.41 635.414C2094.58 632.058 2092.13 629.494 2089.04 627.721C2085.95 625.949 2082.55 625.044 2078.82 625.044C2075.09 625.044 2071.73 625.911 2068.68 627.665C2065.62 629.418 2063.17 631.964 2061.36 635.301C2059.55 638.638 2058.63 642.578 2058.63 647.084C2058.63 651.59 2059.53 655.663 2061.36 659.038C2063.17 662.431 2065.62 665.014 2068.68 666.786C2071.73 668.578 2075.13 669.464 2078.82 669.464C2082.52 669.464 2085.93 668.578 2089.04 666.786C2092.13 664.995 2094.58 662.412 2096.41 659.038C2098.22 655.663 2099.15 651.703 2099.15 647.197C2099.15 642.691 2098.24 638.751 2096.41 635.414Z" fill="#003F3C"/>
<path d="M2148.28 668.069L2166.84 617.409H2177.43L2153.96 677.251H2142.38L2118.91 617.409H2129.6L2148.26 668.069H2148.28Z" fill="#003F3C"/>
<path d="M2187.58 605.719C2186.28 604.418 2185.62 602.816 2185.62 600.912C2185.62 599.007 2186.28 597.424 2187.58 596.104C2188.9 594.784 2190.5 594.143 2192.39 594.143C2194.27 594.143 2195.76 594.803 2197.02 596.104C2198.29 597.405 2198.93 599.026 2198.93 600.912C2198.93 602.797 2198.29 604.4 2197.02 605.719C2195.74 607.039 2194.2 607.68 2192.39 607.68C2190.58 607.68 2188.9 607.02 2187.58 605.719ZM2197.19 617.409V677.25H2187.26V617.409H2197.19Z" fill="#003F3C"/>
<path d="M2260.96 622.914C2265.47 627.326 2267.73 633.661 2267.73 641.975V677.232H2257.91V643.389C2257.91 637.412 2256.42 632.85 2253.44 629.682C2250.46 626.515 2246.39 624.931 2241.22 624.931C2236.05 624.931 2231.81 626.572 2228.72 629.852C2225.63 633.133 2224.08 637.903 2224.08 644.162V677.25H2214.14V617.409H2224.08V625.931C2226.04 622.876 2228.72 620.501 2232.11 618.842C2235.51 617.164 2239.22 616.334 2243.31 616.334C2250.59 616.334 2256.49 618.54 2261 622.933L2260.96 622.914Z" fill="#003F3C"/>
<path d="M2322.28 619.804C2326.18 622.066 2329.07 624.894 2330.95 628.325V617.409H2341V678.552C2341 684.001 2339.83 688.865 2337.51 693.126C2335.18 697.387 2331.86 700.705 2327.52 703.118C2323.18 705.513 2318.15 706.719 2312.4 706.719C2304.54 706.719 2297.99 704.853 2292.75 701.157C2287.51 697.462 2284.42 692.39 2283.48 685.98H2293.3C2294.39 689.619 2296.66 692.56 2300.07 694.766C2303.48 696.991 2307.61 698.103 2312.4 698.103C2317.87 698.103 2322.32 696.387 2325.77 692.975C2329.22 689.544 2330.95 684.755 2330.95 678.571V666.014C2328.99 669.502 2326.07 672.424 2322.22 674.743C2318.36 677.081 2313.85 678.231 2308.68 678.231C2303.52 678.231 2298.54 676.912 2294.22 674.291C2289.89 671.67 2286.49 667.994 2284.02 663.261C2281.53 658.529 2280.31 653.156 2280.31 647.104C2280.31 641.052 2281.55 635.622 2284.02 631.003C2286.49 626.384 2289.9 622.801 2294.22 620.256C2298.56 617.711 2303.37 616.429 2308.68 616.429C2314 616.429 2318.38 617.56 2322.28 619.822V619.804ZM2328.22 635.414C2326.39 632.058 2323.94 629.494 2320.85 627.722C2317.75 625.95 2314.36 625.045 2310.63 625.045C2306.89 625.045 2303.54 625.912 2300.48 627.666C2297.43 629.419 2294.98 631.964 2293.17 635.301C2291.36 638.657 2290.43 642.579 2290.43 647.085C2290.43 651.591 2291.34 655.663 2293.17 659.038C2294.98 662.432 2297.43 665.015 2300.48 666.787C2303.54 668.578 2306.93 669.464 2310.63 669.464C2314.32 669.464 2317.74 668.578 2320.85 666.787C2323.96 664.996 2326.39 662.413 2328.22 659.038C2330.03 655.663 2330.95 651.704 2330.95 647.198C2330.95 642.692 2330.05 638.752 2328.22 635.414Z" fill="#003F3C"/>
<path d="M2399.1 625.591V660.867C2399.1 663.77 2399.72 665.825 2400.96 667.032C2402.21 668.238 2404.36 668.823 2407.41 668.823H2414.73V677.232H2405.77C2400.23 677.232 2396.08 675.95 2393.33 673.404C2390.55 670.859 2389.18 666.674 2389.18 660.848V625.572H2381.43V617.39H2389.18V602.326H2399.11V617.39H2414.73V625.572H2399.11L2399.1 625.591Z" fill="#003F3C"/>
<path d="M2427.04 605.719C2425.74 604.418 2425.08 602.816 2425.08 600.912C2425.08 599.007 2425.74 597.424 2427.04 596.104C2428.36 594.784 2429.96 594.143 2431.85 594.143C2433.73 594.143 2435.22 594.803 2436.49 596.104C2437.75 597.405 2438.39 599.026 2438.39 600.912C2438.39 602.797 2437.75 604.4 2436.49 605.719C2435.2 607.039 2433.66 607.68 2431.85 607.68C2430.04 607.68 2428.36 607.02 2427.04 605.719ZM2436.66 617.409V677.25H2426.72V617.409H2436.66Z" fill="#003F3C"/>
<path d="M2537.98 619.2C2541.62 621.123 2544.49 624.026 2546.62 627.872C2548.73 631.737 2549.79 636.432 2549.79 641.956V677.213H2539.96V643.37C2539.96 637.394 2538.49 632.831 2535.53 629.664C2532.59 626.496 2528.59 624.912 2523.58 624.912C2518.56 624.912 2514.3 626.572 2511.25 629.89C2508.19 633.208 2506.66 637.978 2506.66 644.256V677.232H2496.84V643.389C2496.84 637.412 2495.37 632.85 2492.41 629.682C2489.47 626.515 2485.47 624.931 2480.46 624.931C2475.44 624.931 2471.18 626.59 2468.12 629.909C2465.07 633.227 2463.54 637.997 2463.54 644.275V677.25H2453.61V617.409H2463.54V626.044C2465.5 622.914 2468.14 620.501 2471.46 618.842C2474.78 617.164 2478.44 616.334 2482.44 616.334C2487.45 616.334 2491.9 617.465 2495.77 619.709C2499.61 621.971 2502.5 625.271 2504.38 629.645C2506.06 625.421 2508.81 622.16 2512.68 619.822C2516.54 617.484 2520.82 616.334 2525.58 616.334C2530.33 616.334 2534.38 617.296 2538.02 619.219L2537.98 619.2Z" fill="#003F3C"/>
<path d="M2620.32 651.025H2572.49C2572.85 656.926 2574.86 661.526 2578.54 664.844C2582.22 668.163 2586.67 669.803 2591.91 669.803C2596.21 669.803 2599.79 668.804 2602.66 666.805C2605.54 664.807 2607.54 662.13 2608.71 658.774H2619.42C2617.82 664.524 2614.61 669.2 2609.8 672.801C2604.99 676.402 2599.04 678.212 2591.89 678.212C2586.22 678.212 2581.14 676.93 2576.66 674.384C2572.19 671.839 2568.66 668.219 2566.12 663.525C2563.57 658.83 2562.29 653.381 2562.29 647.197C2562.29 641.013 2563.53 635.583 2566 630.927C2568.47 626.27 2571.96 622.687 2576.43 620.18C2580.9 617.672 2586.06 616.409 2591.87 616.409C2597.68 616.409 2602.58 617.654 2606.94 620.123C2611.31 622.593 2614.67 626.006 2617.04 630.323C2619.4 634.66 2620.59 639.562 2620.59 645.01C2620.59 646.915 2620.48 648.913 2620.27 651.025H2620.32ZM2607.86 633.17C2606.18 630.436 2603.9 628.362 2601.04 626.948C2598.15 625.534 2594.98 624.818 2591.48 624.818C2586.46 624.818 2582.18 626.421 2578.65 629.626C2575.13 632.831 2573.11 637.261 2572.6 642.955H2610.39C2610.39 639.166 2609.56 635.923 2607.88 633.189L2607.86 633.17Z" fill="#003F3C"/>
<path d="M2687.26 625.591H2674.7V677.232H2664.77V625.591H2657.02V617.409H2664.77V613.148C2664.77 606.455 2666.5 601.553 2669.95 598.461C2673.4 595.369 2678.96 593.823 2686.6 593.823V602.118C2682.23 602.118 2679.15 602.967 2677.38 604.683C2675.59 606.398 2674.7 609.226 2674.7 613.148V617.409H2687.26V625.591Z" fill="#003F3C"/>
<path d="M2709.7 674.404C2705.15 671.859 2701.59 668.239 2698.99 663.544C2696.41 658.85 2695.12 653.401 2695.12 647.217C2695.12 641.033 2696.44 635.697 2699.1 631.003C2701.76 626.308 2705.38 622.707 2709.96 620.199C2714.54 617.692 2719.67 616.429 2725.37 616.429C2731.06 616.429 2736.17 617.692 2740.75 620.199C2745.33 622.707 2748.95 626.289 2751.61 630.946C2754.27 635.603 2755.59 641.033 2755.59 647.217C2755.59 653.401 2754.23 658.85 2751.5 663.544C2748.77 668.239 2745.07 671.859 2740.41 674.404C2735.76 676.949 2730.59 678.231 2724.91 678.231C2719.24 678.231 2714.22 676.949 2709.68 674.404H2709.7ZM2734.96 666.976C2738.09 665.298 2740.62 662.79 2742.56 659.434C2744.49 656.097 2745.45 652.006 2745.45 647.217C2745.45 642.428 2744.5 638.337 2742.62 634.981C2740.73 631.625 2738.24 629.136 2735.19 627.496C2732.14 625.856 2728.82 625.045 2725.25 625.045C2721.69 625.045 2718.28 625.874 2715.26 627.496C2712.24 629.136 2709.81 631.625 2708 634.981C2706.19 638.337 2705.27 642.409 2705.27 647.217C2705.27 652.025 2706.15 656.21 2707.94 659.547C2709.74 662.884 2712.11 665.392 2715.09 667.032C2718.07 668.672 2721.35 669.483 2724.91 669.483C2728.48 669.483 2731.83 668.654 2734.96 666.976Z" fill="#003F3C"/>
<path d="M2786.12 619.143C2789.36 617.258 2793.3 616.315 2797.96 616.315V626.572H2795.34C2784.2 626.572 2778.63 632.605 2778.63 644.69V677.232H2768.7V617.39H2778.63V627.1C2780.39 623.687 2782.88 621.029 2786.12 619.125V619.143Z" fill="#003F3C"/>
<path d="M2838.59 630.983C2841.06 626.364 2844.49 622.782 2848.91 620.236C2853.32 617.691 2858.35 616.409 2864.03 616.409C2871.38 616.409 2877.43 618.2 2882.2 621.764C2886.97 625.327 2890.12 630.286 2891.65 636.62H2880.94C2879.92 632.982 2877.94 630.116 2874.98 627.985C2872.04 625.874 2868.36 624.818 2864.01 624.818C2858.33 624.818 2853.75 626.76 2850.24 630.663C2846.76 634.565 2845 640.071 2845 647.216C2845 654.362 2846.76 659.98 2850.24 663.921C2853.73 667.861 2858.33 669.822 2864.01 669.822C2868.38 669.822 2872.02 668.804 2874.93 666.768C2877.83 664.731 2879.85 661.809 2880.94 658.038H2891.65C2890.05 664.147 2886.84 669.049 2882.03 672.725C2877.23 676.402 2871.23 678.25 2864.01 678.25C2858.33 678.25 2853.3 676.967 2848.89 674.422C2844.48 671.877 2841.04 668.276 2838.57 663.619C2836.08 658.962 2834.86 653.495 2834.86 647.235C2834.86 640.976 2836.1 635.64 2838.57 631.021L2838.59 630.983Z" fill="#003F3C"/>
<path d="M2904.87 630.983C2907.34 626.364 2910.75 622.782 2915.07 620.236C2919.41 617.691 2924.21 616.409 2929.53 616.409C2934.85 616.409 2939.32 617.54 2943.18 619.803C2947.03 622.065 2949.91 624.893 2951.8 628.325V617.408H2961.85V677.25H2951.8V666.108C2949.84 669.596 2946.92 672.499 2943.01 674.78C2939.11 677.081 2934.58 678.212 2929.42 678.212C2924.25 678.212 2919.29 676.892 2915.01 674.271C2910.71 671.651 2907.34 667.974 2904.87 663.242C2902.38 658.51 2901.15 653.136 2901.15 647.084C2901.15 641.032 2902.4 635.602 2904.87 630.983ZM2949.1 635.414C2947.27 632.058 2944.82 629.494 2941.73 627.721C2938.64 625.949 2935.24 625.044 2931.51 625.044C2927.78 625.044 2924.42 625.911 2921.37 627.665C2918.31 629.418 2915.86 631.964 2914.05 635.301C2912.24 638.638 2911.32 642.578 2911.32 647.084C2911.32 651.59 2912.22 655.663 2914.05 659.038C2915.86 662.431 2918.31 665.014 2921.37 666.786C2924.42 668.578 2927.82 669.464 2931.51 669.464C2935.21 669.464 2938.62 668.578 2941.73 666.786C2944.84 664.995 2947.27 662.412 2949.1 659.038C2950.91 655.663 2951.84 651.703 2951.84 647.197C2951.84 642.691 2950.93 638.751 2949.1 635.414Z" fill="#003F3C"/>
<path d="M2996.11 619.143C2999.35 617.258 3003.29 616.315 3007.95 616.315V626.572H3005.33C2994.19 626.572 2988.62 632.605 2988.62 644.69V677.232H2978.69V617.39H2988.62V627.1C2990.38 623.687 2992.87 621.029 2996.11 619.125V619.143Z" fill="#003F3C"/>
<path d="M3073.68 651.025H3025.84C3026.2 656.926 3028.22 661.526 3031.9 664.844C3035.57 668.163 3040.02 669.803 3045.26 669.803C3049.56 669.803 3053.15 668.804 3056.01 666.805C3058.88 664.807 3060.9 662.13 3062.06 658.774H3072.77C3071.17 664.524 3067.97 669.2 3063.16 672.801C3058.35 676.402 3052.39 678.212 3045.25 678.212C3039.57 678.212 3034.5 676.93 3030.01 674.384C3025.54 671.839 3022.02 668.219 3019.47 663.525C3016.93 658.83 3015.64 653.381 3015.64 647.197C3015.64 641.013 3016.89 635.583 3019.36 630.927C3021.83 626.27 3025.32 622.687 3029.78 620.18C3034.25 617.672 3039.42 616.409 3045.23 616.409C3051.03 616.409 3055.94 617.654 3060.29 620.123C3064.67 622.593 3068.02 626.006 3070.4 630.323C3072.76 634.66 3073.94 639.562 3073.94 645.01C3073.94 646.915 3073.83 648.913 3073.62 651.025H3073.68ZM3061.24 633.17C3059.56 630.436 3057.28 628.362 3054.41 626.948C3051.52 625.534 3048.36 624.818 3044.85 624.818C3039.83 624.818 3035.55 626.421 3032.03 629.626C3028.5 632.831 3026.48 637.261 3025.98 642.955H3063.76C3063.76 639.166 3062.93 635.923 3061.25 633.189L3061.24 633.17Z" fill="#003F3C"/>
<path d="M1261.24 382.453C1247.8 333.509 1206.56 303.192 1155.2 303.192C1092.26 303.192 1041.18 348.648 1041.18 418.615C1041.18 488.581 1091.33 535.47 1155.2 535.47C1197.26 535.47 1237.03 515.636 1256.43 478.72L1219.49 460.262C1207.2 480.643 1183.1 492.446 1157.04 492.446C1121.6 492.446 1095.09 474.045 1088.92 438.034H1264.93C1265.16 434.263 1265.42 430.662 1265.54 427.212C1265.76 424.101 1265.86 421.103 1265.86 418.2C1265.86 405.417 1264.22 393.445 1261.22 382.472L1261.24 382.453ZM1089.43 400.647C1096.05 363.769 1121.62 346.235 1155.65 346.235C1189.68 346.235 1214.82 366.126 1219.51 400.647H1089.43Z" fill="#E5694A"/>
<path d="M1456.11 311.657C1444.3 306.077 1430.48 303.192 1414.91 303.192C1391.25 303.192 1355.74 315.485 1342.96 342.954V308.867L1296.63 350.609V529.776H1342.96V411.073C1342.96 365.183 1377.97 348.629 1406.88 348.629C1409.44 348.629 1411.95 348.799 1414.42 349.176C1439.01 352.721 1456.98 373.648 1456.98 406.322V529.776H1503.36V403.475C1503.68 358.075 1486.58 326.024 1456.11 311.657Z" fill="#E5694A"/>
<path d="M1647.64 303.192C1584.76 303.192 1531.77 349.082 1531.77 419.105C1531.77 489.128 1584.76 535.451 1647.64 535.451C1710.52 535.451 1764.05 489.128 1764.05 419.105C1764.05 349.082 1710.56 303.192 1647.64 303.192ZM1647.64 491.993C1609.83 491.993 1578.1 462.167 1578.1 419.124C1578.1 376.08 1609.83 346.744 1647.64 346.744C1685.44 346.744 1717.67 376.571 1717.67 419.124C1717.67 461.676 1685.48 491.993 1647.64 491.993Z" fill="#E5694A"/>
<path d="M1939.1 308.886L1874.75 469.765L1810.4 308.886H1760.73L1853.01 529.795H1896.98L1989.26 308.886H1939.1Z" fill="#E5694A"/>
<path d="M2171.83 308.886V341.993C2157.64 316.918 2127.37 303.211 2095.19 303.211C2032.74 303.211 1985.92 353.362 1985.92 419.124C1985.92 484.886 2035.59 535.47 2093.32 535.47C2127.35 535.47 2157.62 517.993 2171.83 492.427V529.795H2218.22V308.886H2171.83ZM2101.35 491.994C2062.57 491.994 2032.74 458.83 2032.74 419.124C2032.74 379.418 2062.57 346.744 2100.43 346.744C2135.88 346.744 2171.4 376.571 2171.4 419.124C2171.4 461.677 2138.23 491.994 2101.37 491.994H2101.35Z" fill="#E5694A"/>
<path d="M2369.59 491.993C2328.39 491.993 2295.79 461.243 2295.79 419.124C2295.79 377.004 2328.41 346.744 2369.59 346.744C2391.82 346.744 2411.22 355.756 2424 369.896L2454.76 341.05C2435.35 317.898 2404.6 303.192 2368.66 303.192C2304.74 303.192 2249.4 349.082 2249.4 419.105C2249.4 489.128 2304.74 535.451 2368.66 535.451C2404.6 535.451 2435.37 520.821 2454.76 497.593L2424 468.747C2411.22 482.944 2391.82 491.956 2369.59 491.956V491.993Z" fill="#E5694A"/>
<path d="M2689.07 383.339C2674.33 333.848 2629.19 303.211 2577.73 303.211C2514.79 303.211 2461.81 349.101 2461.81 419.124C2461.81 489.147 2514.79 535.47 2577.73 535.47C2636.41 535.47 2686.83 495.217 2693.44 433.038C2693.88 428.494 2694.16 423.856 2694.16 419.105C2694.16 406.322 2692.35 394.35 2689.09 383.321L2689.07 383.339ZM2577.75 491.994C2539.89 491.994 2508.21 462.167 2508.21 419.124C2508.21 376.081 2539.91 346.744 2577.75 346.744C2615.59 346.744 2647.78 376.571 2647.78 419.124C2647.78 419.614 2647.78 420.104 2647.72 420.538C2647.66 424.855 2647.29 429.003 2646.57 433.057C2640.5 468.464 2611.33 491.994 2577.73 491.994H2577.75Z" fill="#E5694A"/>
<path d="M2988.83 303.192C2966.6 303.192 2932.08 311.28 2913.17 349.572C2906.17 334.169 2895.4 322.102 2882.07 314.221C2870.1 307.019 2856.01 303.192 2840.78 303.192C2810.95 303.192 2781.61 318.822 2771.73 343.388V308.924L2765.28 314.712L2725.35 350.703V529.776H2771.73V411.073C2771.73 366.107 2801.07 347.649 2829.92 347.649C2834.5 347.649 2838.88 348.252 2842.93 349.497C2863.14 355.455 2876.25 375.873 2876.25 405.813V529.757H2923.12V419.576C2923.12 373.196 2942.03 347.197 2978.46 347.63C3008.29 347.63 3027.18 369.859 3027.18 405.813V529.757H3074V403.456C3074 340.522 3044.23 303.154 2988.83 303.154V303.192Z" fill="#E5694A"/>
<path d="M385.696 132H589.86L307.748 385.922C299.622 393.237 289.082 397.272 278.165 397.272H74L356.112 143.35C364.239 136.035 374.779 132 385.696 132Z" fill="#003F3C"/>
<path d="M661.454 441.503H865.618L583.506 695.425C575.38 702.74 564.839 706.775 553.922 706.775H349.758L631.87 452.853C639.996 445.538 650.537 441.503 661.454 441.503Z" fill="#003F3C"/>
<path d="M469.809 507.812C518.648 507.812 558.24 468.223 558.24 419.387C558.24 370.552 518.648 330.963 469.809 330.963C420.97 330.963 381.378 370.552 381.378 419.387C381.378 468.223 420.97 507.812 469.809 507.812Z" fill="#E5694A"/>
</svg>
